<?xml version="1.0" encoding="utf-8"?><!-- Uploaded to: SVG Repo, www.svgrepo.com, Generator: SVG Repo Mixer Tools -->
<svg fill="#000000" width="800px" height="800px" viewBox="0 0 24 24" id="cart-alt-1" data-name="Flat Color" xmlns="http://www.w3.org/2000/svg" class="icon flat-color"><path id="secondary" d="M18.5,20.5A1.5,1.5,0,1,1,17,19,1.5,1.5,0,0,1,18.5,20.5ZM11,19a1.5,1.5,0,1,0,1.5,1.5A1.5,1.5,0,0,0,11,19Z" style="fill: rgb(44, 169, 188);"></path><path id="primary" d="M18.2,14a1,1,0,0,0,.93-.63l2.8-7a1,1,0,0,0-.1-.93A1,1,0,0,0,21,5H7.88l-.7-1.74A2,2,0,0,0,5.32,2H3A1,1,0,0,0,3,4H5.32L8.9,13,7.83,15.11A2,2,0,0,0,9.62,18H19a1,1,0,0,0,0-2H9.62l1-2Z" style="fill: rgb(0, 0, 0);"></path></svg>